<svg width="43" height="46" viewBox="0 0 43 46" fill="none" xmlns="http://www.w3.org/2000/svg">
<path d="M18.7619 43.4145C18.1019 43.3535 17.4625 43.1524 16.8865 42.8246C16.3105 42.4968 15.8111 42.0498 15.4217 41.5135L13.6767 39.1187C13.5595 38.9732 13.4223 38.8449 13.2691 38.7378C13.1701 38.6897 13.0664 38.6519 12.9596 38.625L9.40265 37.9182C8.30575 37.7001 7.32545 37.0909 6.64414 36.204C6.5465 36.0793 6.45474 35.9503 6.36884 35.8169C6.33349 35.7721 6.29913 35.7267 6.26576 35.6807C5.60192 34.7847 5.27997 33.6811 5.35795 32.5688L5.65141 28.9497C5.65692 28.8791 5.65628 28.8082 5.64951 28.7378C5.58158 28.5234 5.48162 28.3206 5.35303 28.1362L3.50167 25.7828C3.0714 25.235 2.76949 24.5976 2.6182 23.9177C2.4669 23.2377 2.47007 22.5324 2.62747 21.8539C2.7036 21.216 2.91081 20.6008 3.23609 20.0469C3.56137 19.493 3.99769 19.0123 4.51764 18.6351L6.9256 16.8808C7.05958 16.772 7.1782 16.6454 7.27822 16.5047C7.32722 16.4026 7.36416 16.2951 7.38827 16.1844L8.11856 12.625C8.38951 11.4078 9.13021 10.3468 10.1795 9.67302C11.0981 8.91788 12.2679 8.53718 13.455 8.60699L17.0798 8.87928C17.1703 8.88508 17.2611 8.88181 17.351 8.8695C17.5317 8.80666 17.7025 8.71818 17.8581 8.60679L20.2181 6.77372C20.739 6.3625 21.3416 6.06726 21.9858 5.90776C22.63 5.74826 23.3008 5.72817 23.9533 5.84884C24.6298 5.89835 25.2874 6.09494 25.8801 6.4249C26.4727 6.75486 26.9862 7.21022 27.3847 7.75919L29.1578 10.1952C29.2239 10.2801 29.2985 10.3581 29.3803 10.428L29.6846 10.6411C29.7379 10.6613 29.7925 10.6777 29.8481 10.6902L33.4052 11.3986C34.5599 11.6424 35.5803 12.3123 36.2632 13.2748C36.6832 13.7441 37.0051 14.2926 37.2099 14.8882C37.4147 15.4838 37.4983 16.1143 37.4557 16.7426L37.1621 20.3602C37.1545 20.477 37.1611 20.5943 37.1817 20.7095C37.2429 20.8747 37.326 21.0309 37.4288 21.1739L39.2596 23.512C39.6578 24.0193 39.9464 24.6037 40.1069 25.2283C40.2674 25.8529 40.2965 26.504 40.1921 27.1404C40.156 27.8336 39.9655 28.51 39.6346 29.1201C39.3036 29.7302 38.8406 30.2588 38.2792 30.667L35.8845 32.412C35.7198 32.5454 35.5764 32.7031 35.4593 32.8797C35.4261 32.9595 35.4004 33.0422 35.3826 33.1268L34.6758 36.6837C34.4298 37.8473 33.7513 38.8741 32.7775 39.5567C32.3096 39.9668 31.7651 40.2801 31.1755 40.4785C30.5858 40.6769 29.9627 40.7564 29.3421 40.7125L25.723 40.4191C25.6104 40.4121 25.4974 40.4177 25.3861 40.4358C25.2085 40.496 25.0406 40.5815 24.8875 40.6897L22.5494 42.5205C21.8638 43.058 21.041 43.392 20.1747 43.4846C19.7029 43.5327 19.2266 43.509 18.7619 43.4145Z" fill="#001D58"/>
<path d="M18.8807 40.6573C18.2119 40.5955 17.5639 40.3917 16.9802 40.0594C16.3964 39.7272 15.8903 39.2742 15.4956 38.7307L13.7272 36.3038C13.6085 36.1562 13.4694 36.0263 13.3142 35.9177C13.2138 35.8689 13.1087 35.8306 13.0005 35.8034L9.39572 35.0871C8.28407 34.866 7.29059 34.2487 6.60013 33.3498C6.50117 33.2234 6.40817 33.0927 6.32112 32.9576C6.2853 32.9122 6.25048 32.8662 6.21665 32.8195C5.54389 31.9115 5.21761 30.7931 5.29664 29.6658L5.59405 25.998C5.59963 25.9265 5.59899 25.8547 5.59213 25.7833C5.52328 25.5661 5.42198 25.3605 5.29166 25.1736L3.41541 22.7886C2.97935 22.2334 2.67339 21.5875 2.52006 20.8984C2.36674 20.2092 2.36995 19.4945 2.52946 18.8068C2.60661 18.1604 2.81661 17.5369 3.14626 16.9756C3.47592 16.4142 3.9181 15.9271 4.44504 15.5448L6.88537 13.767C7.02115 13.6566 7.14136 13.5284 7.24272 13.3858C7.29239 13.2823 7.32982 13.1733 7.35425 13.0612L8.09437 9.45389C8.36895 8.22032 9.11961 7.14511 10.183 6.46223C11.114 5.69694 12.2994 5.31113 13.5025 5.38187L17.176 5.65783C17.2678 5.66371 17.3598 5.66039 17.4509 5.64792C17.634 5.58423 17.8071 5.49456 17.9648 5.38168L20.3565 3.52396C20.8844 3.10721 21.4952 2.80801 22.148 2.64636C22.8008 2.48472 23.4806 2.46436 24.142 2.58665C24.8276 2.63682 25.494 2.83606 26.0946 3.17046C26.6953 3.50485 27.2157 3.96633 27.6195 4.52268L29.4164 6.99147C29.4834 7.07752 29.559 7.15657 29.6419 7.22739L29.9503 7.44329C30.0043 7.46375 30.0597 7.48039 30.116 7.49308L33.721 8.21099C34.8911 8.45811 35.9253 9.137 36.6174 10.1124C37.043 10.588 37.3692 11.144 37.5768 11.7475C37.7843 12.3511 37.869 12.9901 37.8259 13.6269L37.5283 17.2931C37.5206 17.4114 37.5273 17.5303 37.5482 17.647C37.6102 17.8145 37.6944 17.9728 37.7986 18.1177L39.654 20.4873C40.0576 21.0013 40.35 21.5936 40.5127 22.2266C40.6754 22.8596 40.7048 23.5195 40.5991 24.1644C40.5625 24.8669 40.3694 25.5524 40.034 26.1707C39.6986 26.7891 39.2293 27.3247 38.6604 27.7384L36.2335 29.5069C36.0667 29.642 35.9213 29.8019 35.8026 29.9808C35.7689 30.0617 35.7429 30.1455 35.7249 30.2313L35.0086 33.836C34.7592 35.0152 34.0717 36.0558 33.0847 36.7477C32.6106 37.1633 32.0588 37.4808 31.4612 37.6818C30.8637 37.8829 30.2321 37.9635 29.6032 37.919L25.9354 37.6216C25.8213 37.6145 25.7068 37.6202 25.594 37.6386C25.414 37.6995 25.2439 37.7862 25.0888 37.8959L22.7192 39.7512C22.0244 40.296 21.1905 40.6345 20.3126 40.7283C19.8345 40.777 19.3517 40.7531 18.8807 40.6573Z" fill="#1D79BE"/>
<path d="M19.6853 28.6166C19.2649 28.6602 18.8443 28.5352 18.516 28.269L12.8287 23.6771C12.6653 23.5446 12.5296 23.3813 12.4293 23.1964C12.3291 23.0115 12.2662 22.8087 12.2443 22.5996C12.2001 22.1771 12.3255 21.7544 12.593 21.4244C12.8604 21.0944 13.248 20.8842 13.6704 20.84C14.0929 20.7958 14.5156 20.9212 14.8456 21.1886L19.2763 24.7767L27.4362 14.6801C27.7036 14.3499 28.0913 14.1395 28.5138 14.0951C28.9364 14.0507 29.3593 14.176 29.6895 14.4435C30.0197 14.7109 30.2302 15.0986 30.2745 15.5211C30.3189 15.9437 30.1936 16.3666 29.9262 16.6968L20.7604 28.0309C20.6286 28.1946 20.4657 28.3305 20.2812 28.431C20.0967 28.5315 19.8942 28.5946 19.6853 28.6166Z" fill="white"/>
</svg>
