<svg width="48" height="48" viewBox="0 0 48 48" fill="none" xmlns="http://www.w3.org/2000/svg">
<path d="M27.5999 21.906C27.4028 21.9067 27.2076 21.8681 27.0256 21.7926C26.8436 21.7171 26.6785 21.606 26.5399 21.466C26.2609 21.1837 26.1045 20.8028 26.1045 20.406C26.1045 20.0091 26.2609 19.6283 26.5399 19.346L42.9399 2.94598C43.2242 2.68102 43.6003 2.53677 43.9889 2.54363C44.3775 2.55049 44.7483 2.70791 45.0231 2.98274C45.298 3.25756 45.4554 3.62833 45.4622 4.01693C45.4691 4.40554 45.3249 4.78163 45.0599 5.06598L28.6599 21.466C28.5208 21.6054 28.3556 21.716 28.1737 21.7915C27.9918 21.867 27.7968 21.9059 27.5999 21.906Z" fill="#1D79BE"/>
<path d="M35.66 23.5H26C25.603 23.4973 25.223 23.3385 24.9422 23.0577C24.6615 22.777 24.5026 22.397 24.5 22V12.34C24.5026 11.943 24.6615 11.5629 24.9422 11.2822C25.223 11.0015 25.603 10.8426 26 10.84C26.397 10.8426 26.777 11.0015 27.0578 11.2822C27.3385 11.5629 27.4974 11.943 27.5 12.34V20.5H35.66C36.0578 20.5 36.4394 20.658 36.7207 20.9393C37.002 21.2206 37.16 21.6021 37.16 22C37.16 22.3978 37.002 22.7793 36.7207 23.0606C36.4394 23.3419 36.0578 23.5 35.66 23.5Z" fill="#1D79BE"/>
<path d="M30 45.5H18C7.14 45.5 2.5 40.86 2.5 30V18C2.5 7.14 7.14 2.5 18 2.5H22C22.397 2.50262 22.777 2.6615 23.0578 2.94224C23.3385 3.22297 23.4974 3.60298 23.5 4C23.4974 4.39702 23.3385 4.77703 23.0578 5.05776C22.777 5.3385 22.397 5.49738 22 5.5H18C8.78 5.5 5.5 8.78 5.5 18V30C5.5 39.22 8.78 42.5 18 42.5H30C39.22 42.5 42.5 39.22 42.5 30V26C42.5 25.6022 42.658 25.2206 42.9393 24.9393C43.2206 24.658 43.6022 24.5 44 24.5C44.3978 24.5 44.7794 24.658 45.0607 24.9393C45.342 25.2206 45.5 25.6022 45.5 26V30C45.5 40.86 40.86 45.5 30 45.5Z" fill="#1D79BE"/>
</svg>
