<svg width="48" height="48" viewBox="0 0 48 48" fill="none" xmlns="http://www.w3.org/2000/svg">
<path d="M16.0009 44.6397C15.4215 44.6381 14.8513 44.4939 14.3409 44.2197C13.7835 43.9217 13.3178 43.4775 12.9937 42.9349C12.6695 42.3923 12.4992 41.7718 12.5009 41.1397V38.2997C9.66538 38.0984 7.02403 36.7857 5.15134 34.6471C3.27865 32.5085 2.32611 29.717 2.50089 26.8797V14.8797C2.41165 13.3462 2.64799 11.8111 3.19435 10.3754C3.74071 8.93976 4.58474 7.63597 5.67094 6.54976C6.75715 5.46356 8.06094 4.61953 9.49662 4.07317C10.9323 3.52681 12.4674 3.29048 14.0009 3.37971H34.0009C35.5344 3.29048 37.0695 3.52681 38.5052 4.07317C39.9408 4.61953 41.2446 5.46356 42.3308 6.54976C43.417 7.63597 44.2611 8.93976 44.8074 10.3754C45.3538 11.8111 45.5901 13.3462 45.5009 14.8797V26.8797C45.5901 28.4132 45.3538 29.9483 44.8074 31.384C44.2611 32.8197 43.417 34.1235 42.3308 35.2097C41.2446 36.2959 39.9408 37.1399 38.5052 37.6863C37.0695 38.2326 35.5344 38.4689 34.0009 38.3797H26.4609L17.9409 44.0597C17.3641 44.4371 16.6901 44.6386 16.0009 44.6397ZM14.0009 6.35971C12.8644 6.28092 11.7241 6.44676 10.6571 6.84606C9.59013 7.24536 8.62117 7.86882 7.81558 8.67441C7.01 9.47999 6.38654 10.449 5.98724 11.516C5.58794 12.583 5.4221 13.7232 5.50089 14.8597V26.8597C5.4221 27.9963 5.58794 29.1365 5.98724 30.2035C6.38654 31.2705 7.01 32.2394 7.81558 33.045C8.62117 33.8506 9.59013 34.4741 10.6571 34.8734C11.7241 35.2727 12.8644 35.4385 14.0009 35.3597C14.3979 35.3623 14.7779 35.5212 15.0587 35.8019C15.3394 36.0827 15.4983 36.4627 15.5009 36.8597V41.1197C15.5012 41.2104 15.526 41.2994 15.5726 41.3772C15.6193 41.455 15.6861 41.5188 15.7659 41.5618C15.8458 41.6048 15.9358 41.6254 16.0264 41.6215C16.1171 41.6177 16.205 41.5894 16.2809 41.5397L25.1809 35.6197C25.4297 35.4534 25.7216 35.363 26.0209 35.3597H34.0209C35.1574 35.4385 36.2976 35.2727 37.3646 34.8734C38.4316 34.4741 39.4006 33.8506 40.2062 33.045C41.0118 32.2394 41.6352 31.2705 42.0345 30.2035C42.4338 29.1365 42.5997 27.9963 42.5209 26.8597V14.8597C42.5997 13.7232 42.4338 12.583 42.0345 11.516C41.6352 10.449 41.0118 9.47999 40.2062 8.67441C39.4006 7.86882 38.4316 7.24536 37.3646 6.84606C36.2976 6.44676 35.1574 6.28092 34.0209 6.35971H14.0009Z" fill="#1D79BE"/>
<path d="M23.9997 24.2207C23.6027 24.2181 23.2227 24.0592 22.9419 23.7785C22.6612 23.4977 22.5023 23.1177 22.4997 22.7207V22.3007C22.5235 21.5048 22.7511 20.7282 23.1608 20.0454C23.5705 19.3626 24.1486 18.7963 24.8397 18.4007C25.5797 17.9007 25.8197 17.5607 25.8197 17.0407C25.8197 16.8017 25.7726 16.565 25.6811 16.3442C25.5897 16.1234 25.4556 15.9228 25.2866 15.7538C25.1176 15.5848 24.917 15.4507 24.6962 15.3592C24.4754 15.2678 24.2387 15.2207 23.9997 15.2207C23.7607 15.2207 23.524 15.2678 23.3032 15.3592C23.0824 15.4507 22.8818 15.5848 22.7128 15.7538C22.5438 15.9228 22.4097 16.1234 22.3182 16.3442C22.2268 16.565 22.1797 16.8017 22.1797 17.0407C22.1771 17.4377 22.0182 17.8177 21.7375 18.0985C21.4567 18.3792 21.0767 18.5381 20.6797 18.5407C20.2827 18.5381 19.9027 18.3792 19.6219 18.0985C19.3412 17.8177 19.1823 17.4377 19.1797 17.0407C19.1797 15.7624 19.6875 14.5364 20.5914 13.6324C21.4954 12.7285 22.7213 12.2207 23.9997 12.2207C25.278 12.2207 26.504 12.7285 27.4079 13.6324C28.3119 14.5364 28.8197 15.7624 28.8197 17.0407C28.7961 17.8239 28.5724 18.588 28.1697 19.2602C27.7671 19.9324 27.1991 20.4903 26.5197 20.8807C25.7397 21.4007 25.4997 21.7407 25.4997 22.3007V22.7207C25.5 22.9178 25.4613 23.1129 25.386 23.295C25.3108 23.4771 25.2003 23.6426 25.0609 23.7819C24.9216 23.9213 24.7561 24.0318 24.574 24.1071C24.3919 24.1823 24.1967 24.221 23.9997 24.2207Z" fill="#1D79BE"/>
<path d="M24 29.1992C23.7033 29.1992 23.4133 29.1112 23.1666 28.9464C22.92 28.7816 22.7277 28.5473 22.6142 28.2732C22.5006 27.9992 22.4709 27.6976 22.5288 27.4066C22.5867 27.1156 22.7296 26.8483 22.9393 26.6386C23.1491 26.4288 23.4164 26.2859 23.7074 26.228C23.9983 26.1702 24.2999 26.1999 24.574 26.3134C24.8481 26.4269 25.0824 26.6192 25.2472 26.8659C25.412 27.1125 25.5 27.4025 25.5 27.6992C25.5003 27.8963 25.4616 28.0914 25.3864 28.2736C25.3111 28.4557 25.2006 28.6211 25.0612 28.7605C24.9219 28.8998 24.7564 29.0103 24.5743 29.0856C24.3922 29.1609 24.1971 29.1995 24 29.1992Z" fill="#1D79BE"/>
</svg>
