<svg width="48" height="48" viewBox="0 0 48 48" fill="none" xmlns="http://www.w3.org/2000/svg">
<path d="M3.91855 0H44.0814C45.1207 0 46.1174 0.430407 46.8523 1.19654C47.5872 1.96266 48 3.00176 48 4.08523V43.9148C48 44.9982 47.5872 46.0373 46.8523 46.8035C46.1174 47.5696 45.1207 48 44.0814 48H3.91855C3.40389 48 2.89426 47.8943 2.41878 47.6889C1.9433 47.4836 1.51128 47.1826 1.14739 46.8031C0.783511 46.4237 0.494891 45.9732 0.298019 45.4775C0.101147 44.9817 -0.000120311 44.4504 1.07267e-07 43.9138V4.08523C1.07267e-07 3.00176 0.412847 1.96266 1.14772 1.19654C1.88259 0.430407 2.87929 0 3.91855 0Z" fill="#002165"/>
<path d="M24 10.375C24.8156 10.375 25.6088 10.6455 26.2539 11.1445L35.5869 18.3984C36.0242 18.7438 36.3784 19.1829 36.623 19.6836C36.8677 20.1844 36.9964 20.7346 37 21.292V36.333H37.333C37.5976 36.3348 37.8509 36.4409 38.0381 36.6279C38.2252 36.815 38.3312 37.0684 38.333 37.333C38.3313 37.5976 38.2251 37.8509 38.0381 38.0381C37.8509 38.2252 37.5977 38.3313 37.333 38.333H10.666C10.4012 38.3315 10.1473 38.2262 9.95996 38.0391C9.77259 37.8519 9.66679 37.5979 9.66504 37.333C9.66687 37.0684 9.77277 36.815 9.95996 36.6279C10.1473 36.4408 10.4012 36.3345 10.666 36.333H10.9375L11 21.292C10.9993 20.7358 11.127 20.1859 11.3721 19.6865C11.6171 19.1874 11.9738 18.7508 12.4141 18.4111L21.7471 11.1445C22.3921 10.6456 23.1846 10.3751 24 10.375ZM24 12.3857C23.6287 12.3858 23.2677 12.5086 22.9736 12.7354L13.6406 20.002C13.4418 20.1569 13.2808 20.3556 13.1699 20.582C13.0591 20.8083 13.0006 21.0566 13 21.3086L12.9375 36.333H16.333V24.667C16.3344 23.8718 16.6507 23.1092 17.2129 22.5469C17.7752 21.9846 18.5378 21.6684 19.333 21.667H28.666C29.4612 21.6684 30.2238 21.9846 30.7861 22.5469C31.3484 23.1092 31.6646 23.8718 31.666 24.667V36.333H35V21.3086C34.998 21.0549 34.9398 20.8044 34.8291 20.5762C34.7185 20.3481 34.5581 20.1478 34.3604 19.9893L25.0273 12.7354C24.7332 12.5085 24.3715 12.3857 24 12.3857ZM19.333 23.667C19.0682 23.6687 18.8143 23.7738 18.627 23.9609C18.4396 24.1481 18.3341 24.4022 18.332 24.667V36.333H29.666V24.667C29.6639 24.4024 29.5582 24.149 29.3711 23.9619C29.184 23.7748 28.9306 23.6691 28.666 23.667H19.333ZM21.333 28.667C21.5978 28.6687 21.8517 28.7738 22.0391 28.9609C22.2264 29.1481 22.3319 29.4022 22.334 29.667V31.667C22.3318 31.9316 22.2263 32.185 22.0391 32.3721C21.8517 32.5592 21.5978 32.6652 21.333 32.667C21.0684 32.6649 20.815 32.5582 20.6279 32.3711C20.4411 32.1841 20.3352 31.9313 20.333 31.667V29.667C20.3351 29.4025 20.4409 29.149 20.6279 28.9619C20.815 28.7748 21.0684 28.6691 21.333 28.667ZM26 17C26.2648 17.0015 26.5187 17.1069 26.7061 17.2939C26.8935 17.4811 26.9992 17.7351 27.001 18C26.9989 18.2648 26.8924 18.518 26.7051 18.7051C26.5178 18.8921 26.2647 18.9982 26 19H22C21.7354 18.9983 21.4821 18.8921 21.2949 18.7051C21.1078 18.5179 21.0017 18.2647 21 18C21.0014 17.7354 21.1069 17.4821 21.2939 17.2949C21.4812 17.1077 21.7352 17.0014 22 17H26Z" fill="white"/>
</svg>
