<svg width="48" height="48" viewBox="0 0 48 48" fill="none" xmlns="http://www.w3.org/2000/svg">
<path d="M3.91855 0H44.0814C45.1207 0 46.1174 0.430407 46.8523 1.19654C47.5872 1.96266 48 3.00176 48 4.08523V43.9148C48 44.9982 47.5872 46.0373 46.8523 46.8035C46.1174 47.5696 45.1207 48 44.0814 48H3.91855C3.40389 48 2.89426 47.8943 2.41878 47.6889C1.9433 47.4836 1.51128 47.1826 1.14739 46.8031C0.783511 46.4237 0.494891 45.9732 0.298019 45.4775C0.101147 44.9817 -0.000120311 44.4504 1.07267e-07 43.9138V4.08523C1.07267e-07 3.00176 0.412847 1.96266 1.14772 1.19654C1.88259 0.430407 2.87929 0 3.91855 0Z" fill="#002165"/>
<path d="M31.0605 26.3105C31.9864 26.1264 32.9462 26.2208 33.8184 26.582C34.6903 26.9433 35.4356 27.5551 35.96 28.3398C36.4842 29.1246 36.7646 30.0475 36.7646 30.9912C36.7641 31.9525 36.4722 32.8836 35.9404 33.668C35.9664 33.6887 35.9919 33.7107 36.0156 33.7344L37.2236 34.9434C37.3916 35.1139 37.4862 35.3436 37.4863 35.583C37.4862 35.8225 37.3918 36.0531 37.2236 36.2236C37.1401 36.3085 37.0405 36.3768 36.9307 36.4229C36.821 36.4687 36.7029 36.4922 36.584 36.4922C36.465 36.4926 36.3462 36.4694 36.2363 36.4238C36.1267 36.3783 36.027 36.3109 35.9434 36.2266L34.7344 35.0176C34.7104 34.9936 34.688 34.9677 34.667 34.9414C33.8828 35.4727 32.9521 35.7642 31.9912 35.7646C31.0475 35.7646 30.1246 35.4842 29.3398 34.96C28.5552 34.4356 27.9433 33.6902 27.582 32.8184C27.2208 31.9464 27.1265 30.9862 27.3105 30.0605C27.4947 29.1348 27.9488 28.2837 28.6162 27.6162C29.2837 26.9487 30.1347 26.4947 31.0605 26.3105ZM24.5 26.2188C24.7397 26.2204 24.9691 26.3159 25.1387 26.4854C25.3082 26.6549 25.4047 26.8852 25.4062 27.125C25.4045 27.3646 25.3081 27.5942 25.1387 27.7637C24.9692 27.9331 24.7396 28.0296 24.5 28.0312C19.28 28.0312 15.0264 31.4143 15.0264 35.583C15.0247 35.8227 14.9283 36.0522 14.7588 36.2217C14.5892 36.3912 14.3599 36.4877 14.1201 36.4893C13.8804 36.4877 13.651 36.3912 13.4814 36.2217C13.3119 36.0522 13.2156 35.8227 13.2139 35.583C13.2139 30.4234 18.2771 26.2188 24.5 26.2188ZM31.9912 28.0312C31.4058 28.0313 30.8334 28.2051 30.3467 28.5303C29.8601 28.8555 29.4809 29.3178 29.2568 29.8584C29.0329 30.3992 28.9737 30.9952 29.0879 31.5693C29.2022 32.1434 29.4846 32.6711 29.8984 33.085C30.3124 33.4988 30.84 33.7813 31.4141 33.8955C31.9882 34.0097 32.5842 33.9506 33.125 33.7266C33.6655 33.5026 34.1279 33.1232 34.4531 32.6367C34.7783 32.15 34.9521 31.5766 34.9521 30.9912C34.9508 30.2068 34.6386 29.4542 34.084 28.8994C33.5291 28.3445 32.7759 28.0325 31.9912 28.0312ZM23.1445 10.6436C24.4921 10.3756 25.8888 10.5134 27.1582 11.0391C28.4277 11.5649 29.5129 12.4561 30.2764 13.5986C31.0396 14.741 31.4472 16.0841 31.4473 17.458C31.4449 19.2999 30.7126 21.0667 29.4102 22.3691C28.1078 23.6713 26.3417 24.4039 24.5 24.4062C23.1259 24.4062 21.7822 23.9987 20.6396 23.2354C19.4972 22.472 18.607 21.3865 18.0811 20.1172C17.5552 18.8477 17.4176 17.4502 17.6855 16.1025C17.9537 14.755 18.6154 13.5165 19.5869 12.5449C20.5585 11.5734 21.7969 10.9116 23.1445 10.6436ZM24.5 12.3232C23.4843 12.3232 22.491 12.6242 21.6465 13.1885C20.8021 13.7528 20.1435 14.5549 19.7549 15.4932C19.3664 16.4313 19.2648 17.464 19.4629 18.46C19.6611 19.456 20.1501 20.3717 20.8682 21.0898C21.5863 21.8079 22.502 22.297 23.498 22.4951C24.494 22.6932 25.5267 22.5917 26.4648 22.2031C27.4031 21.8145 28.2053 21.1558 28.7695 20.3115C29.3337 19.4671 29.6347 18.4736 29.6348 17.458C29.6318 16.0971 29.0902 14.7924 28.1279 13.8301C27.1656 12.8677 25.861 12.3262 24.5 12.3232Z" fill="white"/>
</svg>
