<svg width="20" height="20" viewBox="0 0 20 20" fill="none" xmlns="http://www.w3.org/2000/svg">
<path d="M6.66696 18.5999C6.42553 18.5992 6.18798 18.5391 5.97529 18.4249C5.74306 18.3007 5.54901 18.1157 5.41395 17.8896C5.27889 17.6635 5.20791 17.4049 5.20862 17.1416V15.9582C4.02716 15.8744 2.9266 15.3274 2.14631 14.4363C1.36602 13.5452 0.96913 12.3821 1.04196 11.1999V6.1999C1.00477 5.56093 1.10325 4.92132 1.3309 4.32312C1.55855 3.72492 1.91023 3.18167 2.36281 2.72909C2.8154 2.2765 3.35864 1.92483 3.95684 1.69717C4.55504 1.46952 5.19465 1.37105 5.83362 1.40823H14.167C14.8059 1.37105 15.4455 1.46952 16.0437 1.69717C16.6419 1.92483 17.1852 2.2765 17.6378 2.72909C18.0904 3.18167 18.442 3.72492 18.6697 4.32312C18.8973 4.92132 18.9958 5.56093 18.9586 6.1999V11.1999C18.9958 11.8389 18.8973 12.4785 18.6697 13.0767C18.442 13.6749 18.0904 14.2181 17.6378 14.6707C17.1852 15.1233 16.6419 15.475 16.0437 15.7026C15.4455 15.9303 14.8059 16.0287 14.167 15.9916H11.0253L7.47529 18.3582C7.23498 18.5155 6.95413 18.5994 6.66696 18.5999ZM5.83362 2.6499C5.36007 2.61707 4.88497 2.68617 4.44039 2.85255C3.99581 3.01892 3.59207 3.2787 3.25641 3.61436C2.92075 3.95002 2.66098 4.35375 2.4946 4.79833C2.32823 5.24292 2.25913 5.71801 2.29196 6.19157V11.1916C2.25913 11.6651 2.32823 12.1402 2.4946 12.5848C2.66098 13.0294 2.92075 13.4331 3.25641 13.7688C3.59207 14.1044 3.99581 14.3642 4.44039 14.5306C4.88497 14.697 5.36007 14.7661 5.83362 14.7332C5.99905 14.7343 6.15738 14.8005 6.27436 14.9175C6.39133 15.0345 6.45753 15.1928 6.45862 15.3582V17.1332C6.45875 17.171 6.46908 17.2081 6.48852 17.2405C6.50795 17.2729 6.53578 17.2995 6.56906 17.3174C6.60234 17.3353 6.63984 17.3439 6.67761 17.3423C6.71537 17.3407 6.752 17.3289 6.78362 17.3082L10.492 14.8416C10.5956 14.7723 10.7172 14.7346 10.842 14.7332H14.1753C14.6488 14.7661 15.1239 14.697 15.5685 14.5306C16.0131 14.3642 16.4168 14.1044 16.7525 13.7688C17.0882 13.4331 17.3479 13.0294 17.5143 12.5848C17.6807 12.1402 17.7498 11.6651 17.717 11.1916V6.19157C17.7498 5.71801 17.6807 5.24292 17.5143 4.79833C17.3479 4.35375 17.0882 3.95002 16.7525 3.61436C16.4168 3.2787 16.0131 3.01892 15.5685 2.85255C15.1239 2.68617 14.6488 2.61707 14.1753 2.6499H5.83362Z" fill="white"/>
<path d="M9.99979 10.092C9.83437 10.0909 9.67603 10.0247 9.55905 9.90772C9.44208 9.79074 9.37588 9.6324 9.37479 9.46698V9.29198C9.38471 8.96033 9.47956 8.63678 9.65027 8.35227C9.82097 8.06775 10.0618 7.8318 10.3498 7.66698C10.6581 7.45865 10.7581 7.31698 10.7581 7.10031C10.7581 7.00073 10.7385 6.90212 10.7004 6.81011C10.6623 6.71811 10.6064 6.63451 10.536 6.56409C10.4656 6.49367 10.382 6.43781 10.29 6.3997C10.198 6.36159 10.0994 6.34198 9.99979 6.34198C9.9002 6.34198 9.80159 6.36159 9.70959 6.3997C9.61758 6.43781 9.53398 6.49367 9.46357 6.56409C9.39315 6.63451 9.33729 6.71811 9.29918 6.81011C9.26107 6.90212 9.24146 7.00073 9.24146 7.10031C9.24036 7.26574 9.17416 7.42407 9.05719 7.54105C8.94022 7.65802 8.78188 7.72422 8.61646 7.72531C8.45103 7.72422 8.29269 7.65802 8.17572 7.54105C8.05875 7.42407 7.99255 7.26574 7.99146 7.10031C7.99146 6.56767 8.20305 6.05684 8.57968 5.68021C8.95632 5.30357 9.46715 5.09198 9.99979 5.09198C10.5324 5.09198 11.0433 5.30357 11.4199 5.68021C11.7965 6.05684 12.0081 6.56767 12.0081 7.10031C11.9983 7.42665 11.9051 7.74503 11.7373 8.02511C11.5696 8.3052 11.3329 8.53765 11.0498 8.70031C10.7248 8.91698 10.6248 9.05865 10.6248 9.29198V9.46698C10.6249 9.54909 10.6088 9.63041 10.5774 9.70629C10.5461 9.78217 10.5 9.85111 10.442 9.90917C10.3839 9.96723 10.315 10.0133 10.2391 10.0446C10.1632 10.076 10.0819 10.0921 9.99979 10.092Z" fill="white"/>
<path d="M10 12.1663C9.87639 12.1663 9.75555 12.1297 9.65277 12.061C9.54999 11.9923 9.46988 11.8947 9.42258 11.7805C9.37527 11.6663 9.36289 11.5406 9.38701 11.4194C9.41113 11.2982 9.47065 11.1868 9.55806 11.0994C9.64547 11.012 9.75683 10.9524 9.87807 10.9283C9.99931 10.9042 10.125 10.9166 10.2392 10.9639C10.3534 11.0112 10.451 11.0913 10.5197 11.1941C10.5883 11.2969 10.625 11.4177 10.625 11.5413C10.6251 11.6234 10.609 11.7048 10.5776 11.7806C10.5463 11.8565 10.5002 11.9254 10.4422 11.9835C10.3841 12.0416 10.3152 12.0876 10.2393 12.119C10.1634 12.1503 10.0821 12.1664 10 12.1663Z" fill="white"/>
</svg>
